<?xml version="1.0" encoding="UTF-8" standalone="no"?>
<!-- Created with Inkscape (http://www.inkscape.org/) -->

<svg
   xmlns:dc="http://purl.org/dc/elements/1.1/"
   xmlns:cc="http://creativecommons.org/ns#"
   xmlns:rdf="http://www.w3.org/1999/02/22-rdf-syntax-ns#"
   xmlns:svg="http://www.w3.org/2000/svg"
   xmlns="http://www.w3.org/2000/svg"
   xmlns:sodipodi="http://sodipodi.sourceforge.net/DTD/sodipodi-0.dtd"
   xmlns:inkscape="http://www.inkscape.org/namespaces/inkscape"
   width="12.073182mm"
   height="12.553467mm"
   viewBox="0 0 42.778992 44.480788"
   id="svg5615"
   version="1.1"
   inkscape:version="0.91 r13725"
   sodipodi:docname="wedo_motor-speed_slow.svg">
  <defs
     id="defs5617" />
  <sodipodi:namedview
     id="base"
     pagecolor="#ffffff"
     bordercolor="#666666"
     borderopacity="1.0"
     inkscape:pageopacity="0.0"
     inkscape:pageshadow="2"
     inkscape:zoom="6.1262404"
     inkscape:cx="25.669039"
     inkscape:cy="31.626739"
     inkscape:document-units="px"
     inkscape:current-layer="g7261"
     showgrid="false"
     fit-margin-top="0"
     fit-margin-left="0"
     fit-margin-right="0"
     fit-margin-bottom="0"
     inkscape:window-width="1366"
     inkscape:window-height="717"
     inkscape:window-x="0"
     inkscape:window-y="25"
     inkscape:window-maximized="1" />
  <metadata
     id="metadata5620">
    <rdf:RDF>
      <cc:Work
         rdf:about="">
        <dc:format>image/svg+xml</dc:format>
        <dc:type
           rdf:resource="http://purl.org/dc/dcmitype/StillImage" />
        <dc:title></dc:title>
      </cc:Work>
    </rdf:RDF>
  </metadata>
  <g
     inkscape:label="Layer 1"
     inkscape:groupmode="layer"
     id="layer1"
     transform="translate(-753.37466,-772.9358)">
    <g
       id="g5507"
       transform="matrix(0,0.11189868,-0.11189868,0,861.88968,753.40505)">
      <rect
         ry="11.9188"
         rx="4.1552539"
         y="721.84027"
         x="178.03963"
         height="38.192371"
         width="22.398535"
         id="rect5509"
         style="color:#000000;clip-rule:nonzero;display:inline;overflow:visible;visibility:visible;opacity:1;isolation:auto;mix-blend-mode:normal;color-interpolation:sRGB;color-interpolation-filters:linearRGB;solid-color:#000000;solid-opacity:1;fill:#cccccc;fill-opacity:1;fill-rule:nonzero;stroke:#b3b3b3;stroke-width:7;stroke-linecap:round;stroke-linejoin:round;stroke-miterlimit:4;stroke-dasharray:none;stroke-dashoffset:0;stroke-opacity:1;color-rendering:auto;image-rendering:auto;shape-rendering:auto;text-rendering:auto;enable-background:accumulate" />
      <rect
         style="color:#000000;clip-rule:nonzero;display:inline;overflow:visible;visibility:visible;opacity:1;isolation:auto;mix-blend-mode:normal;color-interpolation:sRGB;color-interpolation-filters:linearRGB;solid-color:#000000;solid-opacity:1;fill:#3771c8;fill-opacity:1;fill-rule:nonzero;stroke:#5f8dd3;stroke-width:7;stroke-linecap:round;stroke-linejoin:round;stroke-miterlimit:4;stroke-dasharray:none;stroke-dashoffset:0;stroke-opacity:1;color-rendering:auto;image-rendering:auto;shape-rendering:auto;text-rendering:auto;enable-background:accumulate"
         id="rect5511"
         width="296.79352"
         height="208.09137"
         x="216.04991"
         y="674.56512"
         rx="20"
         ry="20" />
      <rect
         ry="20"
         rx="20"
         y="674.56512"
         x="240.41631"
         height="208.09143"
         width="254.55844"
         id="rect5513"
         style="color:#000000;clip-rule:nonzero;display:inline;overflow:visible;visibility:visible;opacity:1;isolation:auto;mix-blend-mode:normal;color-interpolation:sRGB;color-interpolation-filters:linearRGB;solid-color:#000000;solid-opacity:1;fill:#cccccc;fill-opacity:1;fill-rule:nonzero;stroke:#999999;stroke-width:7;stroke-linecap:round;stroke-linejoin:round;stroke-miterlimit:4;stroke-dasharray:none;stroke-dashoffset:0;stroke-opacity:1;color-rendering:auto;image-rendering:auto;shape-rendering:auto;text-rendering:auto;enable-background:accumulate" />
      <rect
         ry="11.918779"
         rx="9.8984747"
         y="590.96027"
         x="361.63461"
         height="48.487324"
         width="137.38075"
         id="rect5515"
         style="color:#000000;clip-rule:nonzero;display:inline;overflow:visible;visibility:visible;opacity:1;isolation:auto;mix-blend-mode:normal;color-interpolation:sRGB;color-interpolation-filters:linearRGB;solid-color:#000000;solid-opacity:1;fill:#1a1a1a;fill-opacity:1;fill-rule:nonzero;stroke:#999999;stroke-width:7;stroke-linecap:round;stroke-linejoin:round;stroke-miterlimit:4;stroke-dasharray:none;stroke-dashoffset:0;stroke-opacity:1;color-rendering:auto;image-rendering:auto;shape-rendering:auto;text-rendering:auto;enable-background:accumulate" />
      <rect
         style="color:#000000;clip-rule:nonzero;display:inline;overflow:visible;visibility:visible;opacity:1;isolation:auto;mix-blend-mode:normal;color-interpolation:sRGB;color-interpolation-filters:linearRGB;solid-color:#000000;solid-opacity:1;fill:#1a1a1a;fill-opacity:1;fill-rule:nonzero;stroke:#999999;stroke-width:7;stroke-linecap:round;stroke-linejoin:round;stroke-miterlimit:4;stroke-dasharray:none;stroke-dashoffset:0;stroke-opacity:1;color-rendering:auto;image-rendering:auto;shape-rendering:auto;text-rendering:auto;enable-background:accumulate"
         id="rect5517"
         width="137.38075"
         height="48.487324"
         x="361.63461"
         y="917.77411"
         rx="9.8984747"
         ry="11.918779" />
      <rect
         style="color:#000000;clip-rule:nonzero;display:inline;overflow:visible;visibility:visible;opacity:1;isolation:auto;mix-blend-mode:normal;color-interpolation:sRGB;color-interpolation-filters:linearRGB;solid-color:#000000;solid-opacity:1;fill:#cccccc;fill-opacity:1;fill-rule:nonzero;stroke:#b3b3b3;stroke-width:7;stroke-linecap:round;stroke-linejoin:round;stroke-miterlimit:4;stroke-dasharray:none;stroke-dashoffset:0;stroke-opacity:1;color-rendering:auto;image-rendering:auto;shape-rendering:auto;text-rendering:auto;enable-background:accumulate"
         id="rect5519"
         width="22.398535"
         height="38.192371"
         x="178.03963"
         y="801.09662"
         rx="4.1552539"
         ry="11.9188" />
      <rect
         ry="11.9188"
         rx="9.8984699"
         y="706.89001"
         x="200.01021"
         height="149.50258"
         width="24.243662"
         id="rect5521"
         style="color:#000000;clip-rule:nonzero;display:inline;overflow:visible;visibility:visible;opacity:1;isolation:auto;mix-blend-mode:normal;color-interpolation:sRGB;color-interpolation-filters:linearRGB;solid-color:#000000;solid-opacity:1;fill:#6f918a;fill-opacity:1;fill-rule:nonzero;stroke:#536c67;stroke-width:7;stroke-linecap:round;stroke-linejoin:round;stroke-miterlimit:4;stroke-dasharray:none;stroke-dashoffset:0;stroke-opacity:1;color-rendering:auto;image-rendering:auto;shape-rendering:auto;text-rendering:auto;enable-background:accumulate" />
      <rect
         ry="11.9188"
         rx="4.1552501"
         y="646.44757"
         x="186.80901"
         height="21.11754"
         width="381.74014"
         id="rect5523"
         style="color:#000000;clip-rule:nonzero;display:inline;overflow:visible;visibility:visible;opacity:1;isolation:auto;mix-blend-mode:normal;color-interpolation:sRGB;color-interpolation-filters:linearRGB;solid-color:#000000;solid-opacity:1;fill:#3771c8;fill-opacity:1;fill-rule:nonzero;stroke:#5f8dd3;stroke-width:7;stroke-linecap:round;stroke-linejoin:round;stroke-miterlimit:4;stroke-dasharray:none;stroke-dashoffset:0;stroke-opacity:1;color-rendering:auto;image-rendering:auto;shape-rendering:auto;text-rendering:auto;enable-background:accumulate" />
      <rect
         style="color:#000000;clip-rule:nonzero;display:inline;overflow:visible;visibility:visible;opacity:1;isolation:auto;mix-blend-mode:normal;color-interpolation:sRGB;color-interpolation-filters:linearRGB;solid-color:#000000;solid-opacity:1;fill:#3771c8;fill-opacity:1;fill-rule:nonzero;stroke:#5f8dd3;stroke-width:7;stroke-linecap:round;stroke-linejoin:round;stroke-miterlimit:4;stroke-dasharray:none;stroke-dashoffset:0;stroke-opacity:1;color-rendering:auto;image-rendering:auto;shape-rendering:auto;text-rendering:auto;enable-background:accumulate"
         id="rect5525"
         width="381.74014"
         height="21.11754"
         x="186.80901"
         y="889.65656"
         rx="4.1552501"
         ry="11.9188" />
    </g>
    <g
       transform="translate(922.03394,94.830274)"
       id="g7261">
      <g
         transform="translate(-176.47684,680.52671)"
         id="g7076">
        <title
           id="title7078">Layer 19</title>
        <path
           d="m 23.890329,7.8192128 10.64,0 a 2.24,2.24 0 0 1 2.21,2.6300002 l -3.36,19.5 a 2.24,2.24 0 0 1 -2.21,1.86 l -4.07,0 a 2.24,2.24 0 0 1 -2.21,-1.87 l -3.26,-19.51 a 2.24,2.24 0 0 1 2.26,-2.6100002 z"
           id="imagebot_21"
           inkscape:connector-curvature="0"
           style="fill:#ffffff" />
      </g>
      <g
         transform="translate(-176.47684,680.52671)"
         id="g7091">
        <title
           id="title7093">Layer 22</title>
        <path
           d="m 34.410329,23.919213 -1,6.1 a 2.22,2.22 0 0 1 -2.2,1.85 l -4,0 a 2.23,2.23 0 0 1 -2.32,-1.87 l -1,-6.08 10.52,0 z"
           id="imagebot_24"
           inkscape:connector-curvature="0"
           style="fill:#2ff42f;stroke:#ffffff;stroke-linecap:round;stroke-linejoin:round" />
      </g>
      <g
         transform="translate(-176.47684,680.52671)"
         id="g7096">
        <title
           id="title7098">Layer 23</title>
        <path
           d="m 34.530329,8.8192128 a 1.24,1.24 0 0 1 1.23,1.4300002 l -3.36,19.53 a 1.24,1.24 0 0 1 -1.23,1 l -4.07,0 a 1.24,1.24 0 0 1 -1.23,-1 l -3.25,-19.53 a 1.24,1.24 0 0 1 1.27,-1.4300002 l 10.64,0 m 0,-1 -10.64,0 a 2.24,2.24 0 0 0 -2.21,2.6100002 l 3.21,19.51 a 2.24,2.24 0 0 0 2.21,1.88 l 4.07,0 a 2.24,2.24 0 0 0 2.21,-1.86 l 3.36,-19.51 a 2.24,2.24 0 0 0 -2.21,-2.6300002 l 0,0 z"
           id="imagebot_25"
           inkscape:connector-curvature="0"
           style="fill:#ffffff" />
      </g>
      <path
         style="fill:#ff6600"
         inkscape:connector-curvature="0"
         id="imagebot_26"
         d="m -141.94651,688.34592 a 2.24,2.24 0 0 1 2.21,2.63 l -3.36,19.5 a 2.24,2.24 0 0 1 -2.21,1.86 l -4.07,0 a 2.24,2.24 0 0 1 -2.21,-1.87 l -3.26,-19.51 a 2.24,2.24 0 0 1 2.26,-2.61 l 10.64,0 m 0,-1 -10.64,0 a 3.24,3.24 0 0 0 -3.2,3.78 l 3.2,19.51 a 3.23,3.23 0 0 0 3.2,2.71 l 4.07,0 a 3.24,3.24 0 0 0 3.2,-2.69 l 3.36,-19.51 a 3.24,3.24 0 0 0 -3.2,-3.8 l 0,0 0.01,0 z" />
    </g>
  </g>
</svg>
