<svg width="32" height="35" xmlns="http://www.w3.org/2000/svg">

 <title/>
 <g display="inline">
  <title>Layer 1</title>
  <path id="imagebot_2" stroke-linejoin="round" stroke-linecap="round" stroke="#774dcb" fill="#333333" d="M 24.65999984741211 15.520000019073485 A 8.75 8.75 0 0 1 22.90999984741211 21.730000019073486 C 21.649999847412108 23.360000019073485 20.85999984741211 24.330000019073488 20.85999984741211 26.390000019073486 L 20.85999984741211 26.300000019073487 A 2.36 2.36 0 0 1 19.54999984741211 28.500000019073486 L 19.54999984741211 28.500000019073486 A 8.11 8.11 0 0 1 12.489999847412108 28.500000019073486 L 12.489999847412108 28.500000019073486 A 2.31 2.31 0 0 1 11.189999847412109 26.420000019073488 L 11.189999847412109 26.420000019073488 C 11.189999847412109 24.360000019073485 10.38999984741211 23.420000019073488 9.11999984741211 21.770000019073485 A 8.76 8.76 0 1 1 24.65999984741211 15.520000019073485 z"/>
 </g>
 <g>
  <title>Layer 2</title>
  <circle id="imagebot_3" stroke-linejoin="round" stroke-linecap="round" stroke="#774dcb" fill="#e6e7e8" r="2.96" cy="31.89" cx="15.94"/>
 </g>
 <g>
  <title>Layer 3</title>
  <path id="imagebot_4" stroke-linejoin="round" stroke-linecap="round" stroke="#774dcb" fill="#e6e7e8" d="M 21.11999984741211 29.640000019073486 A 2.17 2.17 0 0 1 19.77999984741211 31.640000019073483 L 19.68999984741211 31.640000019073483 A 9.77 9.77 0 0 1 12.149999847412108 31.640000019073483 L 12.149999847412108 31.640000019073483 A 2.13 2.13 0 0 1 10.759999847412109 29.730000019073486 L 10.759999847412109 27.870000019073487 A 0.8500000000000001 0.8500000000000001 0 0 1 11.759999847412109 27.020000019073485 L 12.90999984741211 27.200000019073485 A 21.15 21.15 0 0 0 18.969999847412108 27.200000019073485 L 20.149999847412108 27.030000019073487 A 0.8500000000000001 0.8500000000000001 0 0 1 21.149999847412108 27.880000019073485 L 21.149999847412108 29.650000019073488 L 21.11999984741211 29.640000019073486 z"/>
 </g>
 <g>
  <title>Layer 6</title>
  <path id="imagebot_7" stroke-linejoin="round" stroke-linecap="round" stroke="#774dcb" fill="#e6e7e8" d="M 10.759999847412109 28.940000019073487 A 6.890000000000001 6.890000000000001 0 0 0 12.379999847412108 29.550000019073487"/>
 </g>
 <g>
  <title>Layer 7</title>
  <path id="imagebot_8" stroke-linejoin="round" stroke-linecap="round" stroke="#774dcb" fill="#e6e7e8" d="M 21.11999984741211 28.940000019073487 A 6.890000000000001 6.890000000000001 0 0 1 19.49999984741211 29.550000019073487"/>
 </g>
</svg>